<?xml version="1.0" encoding="UTF-8" standalone="no"?>
<!-- Created with Inkscape (http://www.inkscape.org/) -->

<svg
   width="210mm"
   height="297mm"
   viewBox="0 0 210 297"
   version="1.1"
   id="svg5"
   inkscape:version="1.1.2 (0a00cf5339, 2022-02-04, custom)"
   sodipodi:docname="paws &amp; ruff logo.svg"
   xmlns:inkscape="http://www.inkscape.org/namespaces/inkscape"
   xmlns:sodipodi="http://sodipodi.sourceforge.net/DTD/sodipodi-0.dtd"
   xmlns="http://www.w3.org/2000/svg"
   xmlns:svg="http://www.w3.org/2000/svg">
  <sodipodi:namedview
     id="namedview7"
     pagecolor="#ffffff"
     bordercolor="#666666"
     borderopacity="1.0"
     inkscape:pageshadow="2"
     inkscape:pageopacity="0.0"
     inkscape:pagecheckerboard="0"
     inkscape:document-units="mm"
     showgrid="false"
     showguides="true"
     inkscape:guide-bbox="true"
     inkscape:zoom="0.82016651"
     inkscape:cx="354.19637"
     inkscape:cy="365.16975"
     inkscape:window-width="1920"
     inkscape:window-height="1015"
     inkscape:window-x="1920"
     inkscape:window-y="0"
     inkscape:window-maximized="1"
     inkscape:current-layer="layer2"
     inkscape:snap-bbox="true" />
  <defs
     id="defs2" />
  <g
     inkscape:label="Elements"
     inkscape:groupmode="layer"
     id="layer1"
     style="display:none"
     sodipodi:insensitive="true">
    <path
       id="rect5837"
       style="fill:#000000;stroke:none;stroke-width:0.442045;stroke-miterlimit:4;stroke-dasharray:none"
       d="m 50.832868,202.57596 c -2.145107,0 -6.627505,4.04854 -6.46557,10.07801 0.123047,4.58148 3.99983,7.20093 6.144394,7.15247 3.155228,-0.0713 5.527967,-3.63794 5.418663,-6.29036 -0.371649,-9.0189 -2.95238,-10.94012 -5.097487,-10.94012 z m 12.085484,0.04 c -2.145107,0 -4.725832,1.92145 -5.097486,10.94034 -0.1093,2.65242 2.263429,6.21906 5.418662,6.29036 2.144559,0.0485 6.021112,-2.57098 6.14416,-7.15246 0.161943,-6.02948 -4.320233,-10.07824 -6.465336,-10.07824 z M 39.749524,213.3201 c -2.18799,0 -4.50771,3.82914 -4.245656,8.08904 0.205113,3.33427 2.417968,7.25213 7.123227,7.17714 2.187716,-0.0349 3.830085,-3.31505 3.617241,-6.04548 -0.304149,-3.90177 -4.306818,-9.2207 -6.494812,-9.2207 z m 34.198716,0.12176 c -2.187999,0 -6.190654,5.31892 -6.494808,9.2207 -0.21284,2.73043 1.429521,6.01061 3.617237,6.04547 4.705272,0.075 6.918348,-3.84286 7.123457,-7.17713 0.262053,-4.2599 -2.057887,-8.08904 -4.245886,-8.08904 z m -17.129737,6.38104 c -0.0888,-8.8e-4 -0.178821,-4.4e-4 -0.27024,0.001 -3.92395,5e-5 -7.011316,4.22456 -7.929823,7.47068 -3.339323,1.84356 -6.317592,3.55026 -6.517882,9.26684 3e-5,3.8699 3.181145,7.00703 7.105183,7.00696 4.556665,-0.12433 5.569938,-1.34627 7.618243,-1.40281 2.506704,-0.0236 4.528698,1.25642 7.774948,1.3859 3.924125,8e-5 7.10528,-3.1372 7.105183,-7.00718 -0.507097,-5.30508 -4.899132,-7.81582 -6.896622,-9.86147 -1.926291,-2.00201 -2.394416,-6.80989 -7.98899,-6.86007 z" />
    <path
       id="rect6043"
       style="fill:#ff0000;stroke:none;stroke-width:0.442045;stroke-miterlimit:4;stroke-dasharray:none"
       d="m 19.085576,252.76968 c -4.919749,0 -8.907989,3.7974 -8.907976,8.48172 0.0026,4.61538 4.418784,7.94496 8.727056,8.47533 1.726596,0.21255 1.701285,1.31465 0,1.47545 -4.783488,0.4521 -8.772374,3.84363 -8.774571,8.47692 -9e-6,4.68432 3.988227,8.48172 8.907975,8.48172 4.905099,-8.8e-4 8.886668,-3.77689 8.906605,-8.44723 h 0.04752 57.368449 0.04752 c 0.01994,4.67034 4.001506,8.44635 8.906605,8.44723 4.919748,-10e-6 8.907991,-3.7974 8.907971,-8.48172 -0.002,-4.63329 -3.991079,-8.02482 -8.774567,-8.47692 -1.701285,-0.1608 -1.726596,-1.2629 0,-1.47545 4.308272,-0.53037 8.724407,-3.85995 8.727057,-8.47533 2e-5,-4.68432 -3.988229,-8.48172 -8.907972,-8.48172 -4.881052,4.4e-4 -8.852715,3.74087 -8.90661,8.38806 H 27.99218 c -0.05389,-4.64719 -4.025553,-8.38762 -8.906604,-8.38806 z" />
  </g>
  <g
     inkscape:groupmode="layer"
     id="layer2"
     inkscape:label="Logo"
     style="display:inline">
    <g
       id="g2984"
       transform="matrix(0.71382197,0,0,0.71382197,-0.21128326,-0.20634896)">
      <path
         id="rect6043-22"
         style="fill:#c8b7b7;stroke:none;stroke-width:0.252704;stroke-miterlimit:4;stroke-dasharray:none"
         d="m 9.84215,42.02886 c -1.99063,1.9868 -2.07082,5.13392 -0.17909,7.0293 1.86495,1.86641 4.99643,1.43021 6.95384,-0.095 0.78445,-0.61127 1.21929,-0.15512 0.59585,0.59699 -1.75293,2.1147 -1.99728,5.09786 -0.12706,6.97348 1.89172,1.89538 5.03899,1.82128 7.02963,-0.16552 1.98435,-1.98123 2.07047,-5.11701 0.19247,-7.01478 l 0.0192,-0.0192 23.21252,-23.16774 0.0192,-0.0192 c 1.89414,1.88167 5.03008,1.8016 7.01514,-0.17892 1.99064,-1.9868 2.07082,-5.13392 0.1791,-7.0293 -1.87201,-1.87384 -4.85563,-1.63525 -6.97371,0.11359 -0.75332,0.62199 -1.20863,0.18627 -0.59585,-0.597 1.52903,-1.95446 1.97128,-5.08509 0.10847,-6.95365 -1.89171,-1.89538 -5.03899,-1.82127 -7.02963,0.16552 -1.9748,1.97135 -2.07128,5.08873 -0.21636,6.99085 L 16.83335,41.82601 c -1.89854,-1.8586 -5.0161,-1.76813 -6.99125,0.20286 z" />
      <path
         id="rect5837-2"
         style="fill:#241c1c;stroke:none;stroke-width:0.374734;stroke-miterlimit:4;stroke-dasharray:none"
         d="m 27.10798,16.64246 c -1.81846,0 -5.61832,3.43206 -5.48104,8.54341 0.10431,3.88386 3.39077,6.10443 5.20877,6.06335 2.67478,-0.0604 4.68622,-3.08398 4.59356,-5.33252 -0.31506,-7.64557 -2.50282,-9.27424 -4.32129,-9.27424 z m 10.24521,0.0339 c -1.81847,0 -4.00622,1.62887 -4.32128,9.27445 -0.0927,2.24853 1.91877,5.27207 4.59355,5.33251 1.81801,0.0411 5.10427,-2.17949 5.20858,-6.06335 0.13729,-5.11135 -3.66238,-8.54361 -5.48085,-8.54361 z m -19.64087,9.07421 c -1.85482,0 -3.82132,3.24607 -3.59916,6.85731 0.17388,2.82656 2.04978,6.14784 6.03856,6.08427 1.85459,-0.0296 3.24687,-2.81027 3.06644,-5.12493 -0.25784,-3.30764 -3.65102,-7.81665 -5.50584,-7.81665 z m 28.99122,0.10322 c -1.85482,0 -5.24799,4.509 -5.50583,7.81665 -0.18043,2.31466 1.21185,5.09537 3.06643,5.12492 3.9888,0.0636 5.86489,-3.25771 6.03876,-6.08426 0.22215,-3.61124 -1.74453,-6.85731 -3.59936,-6.85731 z m -14.52136,5.40939 c -0.0753,-7.5e-4 -0.15159,-2.5e-4 -0.22909,0.001 -3.32645,4e-5 -5.94369,3.58127 -6.72234,6.3331 -2.83084,1.56284 -5.3556,3.00966 -5.52539,7.85577 2e-5,3.28062 2.69675,5.94006 6.02326,5.93999 3.86282,-0.10539 4.7218,-1.14126 6.4582,-1.1892 2.12501,-0.02 3.83911,1.06511 6.59105,1.17487 3.32659,7e-5 6.02335,-2.65949 6.02326,-5.94019 C 44.37126,40.94126 40.648,38.81284 38.95467,37.07868 37.3217,35.38151 36.92486,31.30574 32.18218,31.2632 Z" />
      <text
         xml:space="preserve"
         style="font-style:normal;font-variant:normal;font-weight:normal;font-stretch:normal;font-size:33.8667px;line-height:1.25;font-family:'Caveat Brush';-inkscape-font-specification:'Caveat Brush, Normal';font-variant-ligatures:normal;font-variant-caps:normal;font-variant-numeric:normal;font-variant-east-asian:normal;fill:#000000;fill-opacity:1;stroke:none;stroke-width:0.264583"
         x="59.210892"
         y="31.804935"
         id="text7294-8"><tspan
           sodipodi:role="line"
           id="tspan7292-5"
           style="font-style:normal;font-variant:normal;font-weight:normal;font-stretch:normal;font-size:33.8667px;font-family:'Caveat Brush';-inkscape-font-specification:'Caveat Brush, Normal';font-variant-ligatures:normal;font-variant-caps:normal;font-variant-numeric:normal;font-variant-east-asian:normal;stroke-width:0.264583"
           x="59.210892"
           y="31.804935">PAWS</tspan></text>
      <text
         xml:space="preserve"
         style="font-style:normal;font-variant:normal;font-weight:normal;font-stretch:normal;font-size:19.6123px;line-height:1.25;font-family:'Caveat Brush';-inkscape-font-specification:'Caveat Brush, Normal';font-variant-ligatures:normal;font-variant-caps:normal;font-variant-numeric:normal;font-variant-east-asian:normal;fill:#000000;fill-opacity:1;stroke:none;stroke-width:0.459662"
         x="65.288712"
         y="54.032047"
         id="text7870-0"><tspan
           sodipodi:role="line"
           id="tspan7868-9"
           style="font-style:normal;font-variant:normal;font-weight:normal;font-stretch:normal;font-size:19.6123px;font-family:'Caveat Brush';-inkscape-font-specification:'Caveat Brush, Normal';font-variant-ligatures:normal;font-variant-caps:normal;font-variant-numeric:normal;font-variant-east-asian:normal;stroke-width:0.459662"
           x="65.288712"
           y="54.032047">'N</tspan></text>
      <text
         xml:space="preserve"
         style="font-style:normal;font-variant:normal;font-weight:normal;font-stretch:normal;font-size:33.8667px;line-height:1.25;font-family:'Caveat Brush';-inkscape-font-specification:'Caveat Brush, Normal';font-variant-ligatures:normal;font-variant-caps:normal;font-variant-numeric:normal;font-variant-east-asian:normal;fill:#000000;fill-opacity:1;stroke:none;stroke-width:0.264583"
         x="85.633499"
         y="57.257603"
         id="text8974-6"><tspan
           sodipodi:role="line"
           id="tspan8972-3"
           style="font-style:normal;font-variant:normal;font-weight:normal;font-stretch:normal;font-size:33.8667px;font-family:'Caveat Brush';-inkscape-font-specification:'Caveat Brush, Normal';font-variant-ligatures:normal;font-variant-caps:normal;font-variant-numeric:normal;font-variant-east-asian:normal;stroke-width:0.264583"
           x="85.633499"
           y="57.257603">RUFF</tspan></text>
    </g>
    <g
       id="g2974"
       transform="matrix(0.71382197,0,0,0.71382197,3.9023559,-2.1860075)">
      <path
         id="rect6043-22-1"
         style="fill:#deaa87;stroke:none;stroke-width:0.252704;stroke-miterlimit:4;stroke-dasharray:none"
         d="m 10.15699,111.15814 c -1.99063,1.9868 -2.07082,5.13392 -0.17909,7.0293 1.86495,1.86641 4.99643,1.43021 6.95384,-0.095 0.78445,-0.61127 1.21929,-0.15512 0.59585,0.59699 -1.75293,2.1147 -1.99728,5.09786 -0.12706,6.97348 1.89172,1.89538 5.03899,1.82128 7.02963,-0.16552 1.98435,-1.98123 2.07047,-5.11701 0.19247,-7.01478 l 0.0192,-0.0192 23.21252,-23.16774 0.0192,-0.0192 c 1.89414,1.88167 5.03008,1.8016 7.01514,-0.17892 1.99064,-1.9868 2.07082,-5.13392 0.1791,-7.0293 -1.87201,-1.87384 -4.85563,-1.63525 -6.97371,0.11359 -0.75332,0.62199 -1.20863,0.18627 -0.59585,-0.597 1.52903,-1.95446 1.97128,-5.08509 0.10847,-6.95365 -1.89171,-1.89538 -5.03899,-1.82127 -7.02963,0.16552 -1.9748,1.97135 -2.07128,5.08873 -0.21636,6.99085 l -23.21252,23.16773 c -1.89854,-1.8586 -5.0161,-1.76813 -6.99125,0.20286 z" />
      <path
         id="rect5837-2-0"
         style="fill:#784421;stroke:none;stroke-width:0.374734;stroke-miterlimit:4;stroke-dasharray:none"
         d="m 27.42282,85.77174 c -1.81846,0 -5.61832,3.43206 -5.48104,8.54341 0.10431,3.88386 3.39077,6.10443 5.20877,6.06335 2.67478,-0.0604 4.68622,-3.08398 4.59356,-5.33252 -0.31506,-7.64557 -2.50282,-9.27424 -4.32129,-9.27424 z m 10.24521,0.0339 c -1.81847,0 -4.00622,1.62887 -4.32128,9.27445 -0.0927,2.24853 1.91877,5.27207 4.59355,5.33251 1.81801,0.0411 5.10427,-2.17949 5.20858,-6.06335 0.13729,-5.11135 -3.66238,-8.54361 -5.48085,-8.54361 z m -19.64087,9.07421 c -1.85482,0 -3.82132,3.24607 -3.59916,6.85731 0.17388,2.82656 2.04978,6.14784 6.03856,6.08427 1.85459,-0.0296 3.24687,-2.81027 3.06644,-5.12493 -0.25784,-3.30764 -3.65102,-7.81665 -5.50584,-7.81665 z m 28.99122,0.10322 c -1.85482,0 -5.24799,4.509 -5.50583,7.81665 -0.18043,2.31466 1.21185,5.09537 3.06643,5.12492 3.9888,0.0636 5.86489,-3.25771 6.03876,-6.08426 0.22215,-3.61124 -1.74453,-6.85731 -3.59936,-6.85731 z m -14.52136,5.40939 c -0.0753,-7.5e-4 -0.15159,-2.5e-4 -0.22909,0.001 -3.32645,4e-5 -5.94369,3.58127 -6.72234,6.3331 -2.83084,1.56284 -5.3556,3.00966 -5.52539,7.85577 2e-5,3.28062 2.69675,5.94006 6.02326,5.93999 3.86282,-0.10539 4.7218,-1.14126 6.4582,-1.1892 2.12501,-0.02 3.83911,1.06511 6.59105,1.17487 3.32659,7e-5 6.02335,-2.65949 6.02326,-5.94019 -0.42987,-4.49726 -4.15313,-6.62568 -5.84646,-8.35984 -1.63297,-1.69717 -2.02981,-5.77294 -6.77249,-5.81548 z" />
      <text
         xml:space="preserve"
         style="font-style:normal;font-variant:normal;font-weight:normal;font-stretch:normal;font-size:33.8667px;line-height:1.25;font-family:'Caveat Brush';-inkscape-font-specification:'Caveat Brush, Normal';font-variant-ligatures:normal;font-variant-caps:normal;font-variant-numeric:normal;font-variant-east-asian:normal;fill:#784421;fill-opacity:1;stroke:none;stroke-width:0.264583"
         x="59.525734"
         y="100.93422"
         id="text7294-8-0"><tspan
           sodipodi:role="line"
           id="tspan7292-5-4"
           style="font-style:normal;font-variant:normal;font-weight:normal;font-stretch:normal;font-size:33.8667px;font-family:'Caveat Brush';-inkscape-font-specification:'Caveat Brush, Normal';font-variant-ligatures:normal;font-variant-caps:normal;font-variant-numeric:normal;font-variant-east-asian:normal;fill:#784421;stroke-width:0.264583"
           x="59.525734"
           y="100.93422">PAWS</tspan></text>
      <text
         xml:space="preserve"
         style="font-style:normal;font-variant:normal;font-weight:normal;font-stretch:normal;font-size:19.6123px;line-height:1.25;font-family:'Caveat Brush';-inkscape-font-specification:'Caveat Brush, Normal';font-variant-ligatures:normal;font-variant-caps:normal;font-variant-numeric:normal;font-variant-east-asian:normal;fill:#784421;fill-opacity:1;stroke:none;stroke-width:0.459662"
         x="59.466042"
         y="122.18144"
         id="text7870-0-4"><tspan
           sodipodi:role="line"
           id="tspan1065"
           x="59.466042"
           y="122.18144">&amp;</tspan></text>
      <text
         xml:space="preserve"
         style="font-style:normal;font-variant:normal;font-weight:normal;font-stretch:normal;font-size:33.8667px;line-height:1.25;font-family:'Caveat Brush';-inkscape-font-specification:'Caveat Brush, Normal';font-variant-ligatures:normal;font-variant-caps:normal;font-variant-numeric:normal;font-variant-east-asian:normal;fill:#d38d5f;fill-opacity:1;stroke:none;stroke-width:0.264583"
         x="73.793007"
         y="127.13295"
         id="text8974-6-4"><tspan
           sodipodi:role="line"
           id="tspan8972-3-7"
           style="font-style:normal;font-variant:normal;font-weight:normal;font-stretch:normal;font-size:33.8667px;font-family:'Caveat Brush';-inkscape-font-specification:'Caveat Brush, Normal';font-variant-ligatures:normal;font-variant-caps:normal;font-variant-numeric:normal;font-variant-east-asian:normal;fill:#d38d5f;stroke-width:0.264583"
           x="73.793007"
           y="127.13295">RUFF</tspan></text>
    </g>
    <g
       id="g3284"
       transform="translate(-0.08523139,-0.56324404)">
      <path
         id="rect6043-22-1-4"
         style="display:inline;fill:#deaa87;stroke:none;stroke-width:0.180386;stroke-miterlimit:4;stroke-dasharray:none"
         d="m 8.3891905,125.80693 c -1.420956,1.41822 -1.478197,3.66471 -0.127839,5.01767 1.331243,1.33229 3.5665615,1.02092 4.9638035,-0.0678 0.559958,-0.43634 0.870356,-0.11073 0.425331,0.42614 -1.25128,1.50952 -1.425703,3.63897 -0.0907,4.97783 1.350351,1.35296 3.596941,1.30007 5.017904,-0.11816 1.416473,-1.41424 1.477947,-3.65263 0.137389,-5.0073 l 0.01371,-0.0137 16.569606,-16.53764 0.01371,-0.0137 c 1.352079,1.34317 3.590581,1.28602 5.007561,-0.12772 1.420962,-1.41822 1.478197,-3.6647 0.127845,-5.01767 -1.336282,-1.33759 -3.466055,-1.16728 -4.977987,0.0811 -0.537736,0.44399 -0.862747,0.13297 -0.425331,-0.42615 1.091455,-1.39513 1.407143,-3.62985 0.07743,-4.96367 -1.350344,-1.35296 -3.596941,-1.30006 -5.017904,0.11816 -1.409656,1.40719 -1.478525,3.63244 -0.154442,4.99022 L 13.37967,125.66217 c -1.35522,-1.32671 -3.5806025,-1.26213 -4.9905075,0.14481 z" />
      <path
         id="rect5837-2-0-4"
         style="display:inline;fill:#784421;stroke:none;stroke-width:0.267493;stroke-miterlimit:4;stroke-dasharray:none"
         d="m 20.713918,107.68556 c -1.298056,0 -4.01048,2.44988 -3.912486,6.09848 0.07446,2.77238 2.420406,4.35747 3.718134,4.32815 1.909317,-0.0431 3.345127,-2.20141 3.278984,-3.80647 -0.224897,-5.45758 -1.786568,-6.62016 -3.084632,-6.62016 z m 7.313256,0.0242 c -1.298063,0 -2.859727,1.16272 -3.084624,6.62031 -0.06617,1.60505 1.36966,3.76332 3.278977,3.80646 1.297735,0.0293 3.64354,-1.55577 3.717999,-4.32815 0.098,-3.6486 -2.614288,-6.09862 -3.912352,-6.09862 z m -14.020084,6.47737 c -1.324011,0 -2.727742,2.31712 -2.56916,4.8949 0.12412,2.01766 1.463178,4.38846 4.310457,4.34309 1.323847,-0.0211 2.317687,-2.00604 2.188892,-3.65829 -0.184051,-2.36107 -2.606178,-5.5797 -3.930189,-5.5797 z m 20.69457,0.0737 c -1.324012,0 -3.746131,3.21863 -3.930183,5.5797 -0.128795,1.65225 0.865045,3.63719 2.188885,3.65828 2.847293,0.0454 4.186488,-2.32543 4.3106,-4.34308 0.158575,-2.57778 -1.245284,-4.8949 -2.569302,-4.8949 z m -10.365666,3.86134 c -0.05375,-5.3e-4 -0.108208,-1.7e-4 -0.16353,7.2e-4 -2.374493,3e-5 -4.242736,2.55639 -4.798554,4.5207 -2.020715,1.11559 -3.822945,2.14836 -3.944144,5.60762 1.4e-5,2.34178 1.924999,4.24015 4.299535,4.2401 2.757366,-0.0752 3.370525,-0.81466 4.610005,-0.84888 1.516879,-0.0143 2.740441,0.7603 4.704836,0.83865 2.374593,5e-5 4.2996,-1.8984 4.299536,-4.24024 -0.306851,-3.21024 -2.964596,-4.72955 -4.173332,-5.96743 -1.16565,-1.21148 -1.448923,-4.12086 -4.834352,-4.15122 z" />
    </g>
    <g
       id="g3337"
       transform="translate(-59.673007,-25.966085)">
      <path
         id="rect6043-22-6"
         style="display:inline;fill:#c8b7b7;stroke:none;stroke-width:0.180386;stroke-miterlimit:4;stroke-dasharray:none"
         d="m 115.97697,151.20978 c -1.42095,1.41823 -1.47819,3.66471 -0.12784,5.01767 1.33125,1.33229 3.56657,1.02092 4.96381,-0.0678 0.55996,-0.43634 0.87035,-0.11073 0.42533,0.42614 -1.25128,1.50952 -1.4257,3.63897 -0.0907,4.97783 1.35035,1.35296 3.59694,1.30007 5.01791,-0.11815 1.41647,-1.41425 1.47794,-3.65264 0.13738,-5.00731 l 0.0137,-0.0137 16.56961,-16.53765 0.0137,-0.0137 c 1.35208,1.34318 3.59058,1.28602 5.00756,-0.12772 1.42097,-1.41822 1.4782,-3.6647 0.12785,-5.01767 -1.33628,-1.33759 -3.46606,-1.16727 -4.97799,0.0811 -0.53774,0.44399 -0.86275,0.13296 -0.42533,-0.42616 1.09146,-1.39513 1.40714,-3.62984 0.0774,-4.96366 -1.35035,-1.35297 -3.59694,-1.30007 -5.01791,0.11815 -1.40965,1.40719 -1.47852,3.63245 -0.15444,4.99022 l -16.5696,16.53763 c -1.35522,-1.3267 -3.58061,-1.26213 -4.99051,0.14481 z" />
      <path
         id="rect5837-2-3"
         style="display:inline;fill:#241c1c;stroke:none;stroke-width:0.267493;stroke-miterlimit:4;stroke-dasharray:none"
         d="m 128.3017,133.08841 c -1.29806,0 -4.01048,2.44988 -3.91249,6.09848 0.0745,2.77238 2.42041,4.35747 3.71814,4.32815 1.90932,-0.0431 3.34513,-2.20141 3.27898,-3.80647 -0.22489,-5.45758 -1.78656,-6.62016 -3.08463,-6.62016 z m 7.31326,0.0242 c -1.29807,0 -2.85973,1.16273 -3.08463,6.62031 -0.0662,1.60505 1.36966,3.76332 3.27898,3.80646 1.29774,0.0293 3.64354,-1.55577 3.718,-4.32815 0.098,-3.6486 -2.61429,-6.09862 -3.91235,-6.09862 z m -14.02009,6.47737 c -1.32401,0 -2.72774,2.31712 -2.56916,4.8949 0.12412,2.01766 1.46318,4.38846 4.31046,4.34309 1.32385,-0.0211 2.31769,-2.00604 2.18889,-3.65829 -0.18405,-2.36107 -2.60618,-5.5797 -3.93019,-5.5797 z m 20.69457,0.0737 c -1.32401,0 -3.74613,3.21863 -3.93018,5.5797 -0.12879,1.65225 0.86505,3.63719 2.18889,3.65828 2.84729,0.0454 4.18648,-2.32542 4.3106,-4.34308 0.15857,-2.57778 -1.24529,-4.8949 -2.56931,-4.8949 z m -10.36566,3.86134 c -0.0537,-5.3e-4 -0.10821,-1.7e-4 -0.16353,7.2e-4 -2.3745,3e-5 -4.24274,2.55639 -4.79856,4.5207 -2.02071,1.11559 -3.82294,2.14837 -3.94414,5.60763 1e-5,2.34177 1.925,4.24014 4.29953,4.24009 2.75737,-0.0752 3.37053,-0.81466 4.61001,-0.84888 1.51688,-0.0143 2.74044,0.7603 4.70484,0.83865 2.37459,5e-5 4.2996,-1.8984 4.29953,-4.24024 -0.30685,-3.21024 -2.96459,-4.72955 -4.17333,-5.96743 -1.16565,-1.21148 -1.44892,-4.12086 -4.83435,-4.15122 z" />
    </g>
    <rect
       style="vector-effect:non-scaling-stroke;fill:none;stroke:none;stroke-width:0.00158765;stroke-miterlimit:4;stroke-dasharray:none;stroke-opacity:1;-inkscape-stroke:hairline"
       id="logo-bw"
       width="112.94396"
       height="47.632622"
       x="0.26919109"
       y="0.25997487"
       inkscape:label="#logo-bw"
       inkscape:export-filename="/home/jon/WebRoot/emus21.servehttp.com/public_html/shadow/assets/logo-bw.png"
       inkscape:export-xdpi="96"
       inkscape:export-ydpi="96" />
    <rect
       style="display:inline;vector-effect:non-scaling-stroke;fill:none;stroke:none;stroke-width:0.00158836;stroke-miterlimit:4;stroke-dasharray:none;stroke-opacity:1;-inkscape-stroke:hairline"
       id="logo"
       width="112.94396"
       height="47.632622"
       x="0.26919836"
       y="47.892597"
       inkscape:label="#logo"
       inkscape:export-filename="/home/jon/WebRoot/emus21.servehttp.com/public_html/shadow/assets/logo.png"
       inkscape:export-xdpi="96"
       inkscape:export-ydpi="96" />
    <rect
       style="display:inline;vector-effect:non-scaling-stroke;fill:none;stroke:none;stroke-width:0.00103946;stroke-miterlimit:4;stroke-dasharray:none;stroke-opacity:1;-inkscape-stroke:hairline"
       id="icon"
       width="48"
       height="48"
       x="0.26919836"
       y="95.525223"
       inkscape:label="#icon"
       inkscape:export-filename="/home/jon/WebRoot/emus21.servehttp.com/public_html/shadow/assets/icon.png"
       inkscape:export-xdpi="96"
       inkscape:export-ydpi="96" />
    <rect
       style="display:inline;vector-effect:non-scaling-stroke;fill:none;stroke:none;stroke-width:0.00103946;stroke-miterlimit:4;stroke-dasharray:none;stroke-opacity:1;-inkscape-stroke:hairline"
       id="icon-bw"
       width="48"
       height="48"
       x="48.269199"
       y="95.525223"
       inkscape:label="#icon-bw"
       inkscape:export-filename="/home/jon/WebRoot/emus21.servehttp.com/public_html/shadow/assets/icon-bw.png"
       inkscape:export-xdpi="96"
       inkscape:export-ydpi="96" />
  </g>
</svg>
